<mxfile host="drawio.corp.amazon.com" modified="2025-07-25T05:26:24.131Z" agent="Mozilla/5.0 (Macintosh; Intel Mac OS X 10_15_7) AppleWebKit/537.36 (KHTML, like Gecko) Chrome/138.0.0.0 Safari/537.36" etag="7Swoa675Z3vsLUOO4bVG" version="21.7.4" type="device" pages="2">
  <diagram name="OpenTelemetry Monitoring" id="otel-monitoring">
    <mxGraphModel dx="1026" dy="565" grid="1" gridSize="10" guides="1" tooltips="1" connect="1" arrows="1" fold="1" page="1" pageScale="1" pageWidth="1169" pageHeight="827" math="0" shadow="0">
      <root>
        <mxCell id="0" />
        <mxCell id="1" parent="0" />
        <mxCell id="dev-group" value="Developer Machines" style="swimlane;fillColor=#dae8fc;strokeColor=#6c8ebf;fontStyle=1;startSize=30;" parent="1" vertex="1">
          <mxGeometry x="40" y="40" width="300" height="200" as="geometry" />
        </mxCell>
        <mxCell id="cli1" value="Claude Code CLI 1" style="rounded=1;whiteSpace=wrap;html=1;fillColor=#fff2cc;strokeColor=#d6b656;" parent="dev-group" vertex="1">
          <mxGeometry x="20" y="50" width="120" height="40" as="geometry" />
        </mxCell>
        <mxCell id="cli2" value="Claude Code CLI 2" style="rounded=1;whiteSpace=wrap;html=1;fillColor=#fff2cc;strokeColor=#d6b656;" parent="dev-group" vertex="1">
          <mxGeometry x="20" y="100" width="120" height="40" as="geometry" />
        </mxCell>
        <mxCell id="cli3" value="Claude Code CLI N" style="rounded=1;whiteSpace=wrap;html=1;fillColor=#fff2cc;strokeColor=#d6b656;" parent="dev-group" vertex="1">
          <mxGeometry x="20" y="150" width="120" height="40" as="geometry" />
        </mxCell>
        <mxCell id="aws-group" value="AWS Account" style="swimlane;fillColor=#f8cecc;strokeColor=#b85450;fontStyle=1;startSize=30;" parent="1" vertex="1">
          <mxGeometry x="400" y="40" width="700" height="600" as="geometry" />
        </mxCell>
        <mxCell id="ecs-group" value="ECS Fargate" style="swimlane;fillColor=#d5e8d4;strokeColor=#82b366;fontStyle=1;startSize=30;" parent="aws-group" vertex="1">
          <mxGeometry x="20" y="50" width="300" height="120" as="geometry" />
        </mxCell>
        <mxCell id="collector" value="OpenTelemetry Collector&#xa;Container" style="rounded=1;whiteSpace=wrap;html=1;fillColor=#f9f;strokeColor=#333;strokeWidth=2;" parent="ecs-group" vertex="1">
          <mxGeometry x="60" y="40" width="180" height="60" as="geometry" />
        </mxCell>
        <mxCell id="cw-group" value="CloudWatch" style="swimlane;fillColor=#e1d5e7;strokeColor=#9673a6;fontStyle=1;startSize=30;" parent="aws-group" vertex="1">
          <mxGeometry x="20" y="200" width="300" height="250" as="geometry" />
        </mxCell>
        <mxCell id="metrics" value="CloudWatch Metrics" style="rounded=1;whiteSpace=wrap;html=1;fillColor=#dae8fc;strokeColor=#6c8ebf;" parent="cw-group" vertex="1">
          <mxGeometry x="20" y="40" width="120" height="40" as="geometry" />
        </mxCell>
        <mxCell id="logs" value="CloudWatch Logs" style="rounded=1;whiteSpace=wrap;html=1;fillColor=#dae8fc;strokeColor=#6c8ebf;" parent="cw-group" vertex="1">
          <mxGeometry x="160" y="40" width="120" height="40" as="geometry" />
        </mxCell>
        <mxCell id="dashboard" value="CloudWatch Dashboard" style="rounded=1;whiteSpace=wrap;html=1;fillColor=#9f9;strokeColor=#333;strokeWidth=2;" parent="cw-group" vertex="1">
          <mxGeometry x="20" y="120" width="260" height="40" as="geometry" />
        </mxCell>
        <mxCell id="alarms" value="CloudWatch Alarms" style="rounded=1;whiteSpace=wrap;html=1;fillColor=#fff2cc;strokeColor=#d6b656;" parent="cw-group" vertex="1">
          <mxGeometry x="20" y="180" width="260" height="40" as="geometry" />
        </mxCell>
        <mxCell id="storage-group" value="Storage" style="swimlane;fillColor=#fff2cc;strokeColor=#d6b656;fontStyle=1;startSize=30;" parent="aws-group" vertex="1">
          <mxGeometry x="20" y="480" width="300" height="100" as="geometry" />
        </mxCell>
        <mxCell id="s3" value="S3 Bucket&#xa;Log Archive" style="rounded=1;whiteSpace=wrap;html=1;fillColor=#dae8fc;strokeColor=#6c8ebf;" parent="storage-group" vertex="1">
          <mxGeometry x="90" y="30" width="120" height="50" as="geometry" />
        </mxCell>
        <mxCell id="sns" value="SNS Topic&#xa;Optional Alerts" style="rounded=1;whiteSpace=wrap;html=1;fillColor=#d5e8d4;strokeColor=#82b366;" parent="aws-group" vertex="1">
          <mxGeometry x="380" y="380" width="120" height="50" as="geometry" />
        </mxCell>
        <mxCell id="note2" value="Bedrock Usage Metrics:&#xa;- API calls by model&#xa;- Token usage&#xa;- Error rates&#xa;- Response times" style="shape=note;whiteSpace=wrap;html=1;backgroundOutline=1;darkOpacity=0.05;fillColor=#ffd;strokeColor=#333;strokeWidth=1;strokeDasharray=5 5;" parent="aws-group" vertex="1">
          <mxGeometry x="320" y="450" width="160" height="100" as="geometry" />
        </mxCell>
        <mxCell id="arrow1" value="OTLP/gRPC&#xa;Port 4317" style="endArrow=classic;html=1;strokeWidth=2;" parent="1" edge="1">
          <mxGeometry relative="1" as="geometry">
            <mxPoint x="340" y="110" as="sourcePoint" />
            <mxPoint x="480" y="150" as="targetPoint" />
          </mxGeometry>
        </mxCell>
        <mxCell id="arrow2" value="OTLP/gRPC&#xa;Port 4317" style="endArrow=classic;html=1;strokeWidth=2;" parent="1" edge="1">
          <mxGeometry relative="1" as="geometry">
            <mxPoint x="340" y="160" as="sourcePoint" />
            <mxPoint x="480" y="160" as="targetPoint" />
          </mxGeometry>
        </mxCell>
        <mxCell id="arrow3" value="OTLP/gRPC&#xa;Port 4317" style="endArrow=classic;html=1;strokeWidth=2;" parent="1" edge="1">
          <mxGeometry relative="1" as="geometry">
            <mxPoint x="340" y="210" as="sourcePoint" />
            <mxPoint x="480" y="170" as="targetPoint" />
          </mxGeometry>
        </mxCell>
        <mxCell id="arrow4" value="Export Metrics" style="endArrow=classic;html=1;strokeWidth=2;" parent="1" edge="1">
          <mxGeometry relative="1" as="geometry">
            <mxPoint x="580" y="210" as="sourcePoint" />
            <mxPoint x="480" y="280" as="targetPoint" />
          </mxGeometry>
        </mxCell>
        <mxCell id="arrow5" value="Export Logs" style="endArrow=classic;html=1;strokeWidth=2;" parent="1" edge="1">
          <mxGeometry relative="1" as="geometry">
            <mxPoint x="620" y="210" as="sourcePoint" />
            <mxPoint x="620" y="280" as="targetPoint" />
          </mxGeometry>
        </mxCell>
        <mxCell id="arrow6" value="Export Traces" style="endArrow=classic;html=1;strokeWidth=2;" parent="1" edge="1">
          <mxGeometry relative="1" as="geometry">
            <mxPoint x="660" y="210" as="sourcePoint" />
            <mxPoint x="660" y="280" as="targetPoint" />
          </mxGeometry>
        </mxCell>
        <mxCell id="arrow7" value="" style="endArrow=classic;html=1;strokeWidth=2;" parent="1" edge="1">
          <mxGeometry relative="1" as="geometry">
            <mxPoint x="480" y="320" as="sourcePoint" />
            <mxPoint x="580" y="360" as="targetPoint" />
          </mxGeometry>
        </mxCell>
        <mxCell id="arrow8" value="" style="endArrow=classic;html=1;strokeWidth=2;" parent="1" edge="1">
          <mxGeometry relative="1" as="geometry">
            <mxPoint x="480" y="330" as="sourcePoint" />
            <mxPoint x="480" y="430" as="targetPoint" />
          </mxGeometry>
        </mxCell>
        <mxCell id="arrow9" value="" style="endArrow=classic;html=1;strokeWidth=2;" parent="1" edge="1">
          <mxGeometry relative="1" as="geometry">
            <mxPoint x="620" y="320" as="sourcePoint" />
            <mxPoint x="620" y="360" as="targetPoint" />
          </mxGeometry>
        </mxCell>
        <mxCell id="arrow10" value="Archive" style="endArrow=classic;html=1;strokeWidth=2;" parent="1" edge="1">
          <mxGeometry relative="1" as="geometry">
            <mxPoint x="620" y="330" as="sourcePoint" />
            <mxPoint x="550" y="560" as="targetPoint" />
          </mxGeometry>
        </mxCell>
        <mxCell id="arrow11" value="Notify" style="endArrow=classic;html=1;strokeWidth=2;" parent="1" edge="1">
          <mxGeometry relative="1" as="geometry">
            <mxPoint x="700" y="430" as="sourcePoint" />
            <mxPoint x="780" y="440" as="targetPoint" />
          </mxGeometry>
        </mxCell>
        <mxCell id="note1" value="Authentication Metrics:&#xa;- Total authentications&#xa;- Failed authentications&#xa;- Authentication latency&#xa;- Active users" style="shape=note;whiteSpace=wrap;html=1;backgroundOutline=1;darkOpacity=0.05;fillColor=#ffd;strokeColor=#333;strokeWidth=1;strokeDasharray=5 5;" parent="1" vertex="1">
          <mxGeometry x="220" y="430" width="160" height="100" as="geometry" />
        </mxCell>
      </root>
    </mxGraphModel>
  </diagram>
  <diagram id="cIOL4KSG9xamTiXqB9Ot" name="Page-2">
    <mxGraphModel dx="2007" dy="665" grid="1" gridSize="10" guides="1" tooltips="1" connect="1" arrows="1" fold="1" page="0" pageScale="1" pageWidth="850" pageHeight="1100" math="0" shadow="0">
      <root>
        <mxCell id="0" />
        <mxCell id="1" parent="0" />
        <mxCell id="m0274TI9Bg0izs4FDaXB-3" value="VPC" style="sketch=0;outlineConnect=0;gradientColor=none;html=1;whiteSpace=wrap;fontSize=16;fontStyle=0;shape=mxgraph.aws4.group;grIcon=mxgraph.aws4.group_vpc;strokeColor=#879196;fillColor=none;verticalAlign=top;align=left;spacingLeft=30;fontColor=#879196;dashed=0;strokeWidth=3;" parent="1" vertex="1">
          <mxGeometry x="-320" y="280" width="400" height="240" as="geometry" />
        </mxCell>
        <mxCell id="lDrv2gHEDihpgpW9zfLM-9" value="" style="fillColor=none;strokeColor=#ee7100;dashed=1;verticalAlign=top;fontStyle=0;fontColor=#5A6C86;whiteSpace=wrap;html=1;strokeWidth=3;" parent="1" vertex="1">
          <mxGeometry x="-160" y="320" width="200" height="160" as="geometry" />
        </mxCell>
        <mxCell id="lDrv2gHEDihpgpW9zfLM-3" style="edgeStyle=orthogonalEdgeStyle;rounded=0;orthogonalLoop=1;jettySize=auto;html=1;entryX=0;entryY=0.5;entryDx=0;entryDy=0;entryPerimeter=0;strokeWidth=3;" parent="1" source="m0274TI9Bg0izs4FDaXB-1" target="lDrv2gHEDihpgpW9zfLM-2" edge="1">
          <mxGeometry relative="1" as="geometry" />
        </mxCell>
        <mxCell id="m0274TI9Bg0izs4FDaXB-1" value="Client" style="shape=image;verticalLabelPosition=bottom;labelBackgroundColor=default;verticalAlign=top;aspect=fixed;imageAspect=0;image=data:image/png,iVBORw0KGgoAAAANSUhEUgAAAJAAAACQCAYAAADnRuK4AAAAAXNSR0IArs4c6QAAAIRlWElmTU0AKgAAAAgABQESAAMAAAABAAEAAAEaAAUAAAABAAAASgEbAAUAAAABAAAAUgEoAAMAAAABAAIAAIdpAAQAAAABAAAAWgAAAAAAAACQAAAAAQAAAJAAAAABAAOgAQADAAAAAQABAACgAgAEAAAAAQAAAJCgAwAEAAAAAQAAAJAAAAAALQfrHQAAAAlwSFlzAAAWJQAAFiUBSVIk8AAACXJJREFUeAHtnV1sHFcVx8+d2drbfFikxShKE7F2rCLkxjaiAcWxeUiD+kAf8hYhlKSoJQheUF94LLzw8YSoQPCIilAeQhWVFoEQKpDESWmrALbrpkL2ekNRmiiUlpLgddc7hzOBSNbm3tlZ78zNzsl/JMv2/Tjnnt/5+967s7PXRLhAAARAAARAAARAAARAAARAAAT8ETBpXVVGJyfCUvgEMx8kMruMoc1p+6JdbxNgoqYhvsJMf2ZDJ5dnZ07IiJtpRt1WQJVKpRwO7PoBEz9h5EpjFG0KToDpYtTkzy8vzMy2iyRRELF4goGdvxXdTLUzhHpdBGQ2umGa9OjSwtlzSZEFSZXxzAPxJBHSWxdvUTjkU9tHpgeTonQKKN7zxMtWUmfU6SYgk8dHNm+mp5OidAooKAVPioHEJS7JMOq0EOCjNDra54qm5KogpoNklQ8/31xb/Upt4bUrzr6oKBaBkZH+oU3bD0u6fyJzRsukYgaGS9s+VSWasQXV0nh9E7Nz/W+3foZ4bpFQ9H1xcXV5buanZMyvbVEZtmshbusUULyJshnDzGOjoqPMML1tiySiaIutPC5zCsjVAeUgsJ6Aew+0vlW6n4OhhyYPBiac4IDK6bqglS8C8g5C0zDX3ltZe/Gfi6+8b/Mrr7pl4bFufG3Nb5ZlIqCdD+57oK8cPi8bsIdjq50NwTk2VGRI4OYLapHHtk197wyM7/tCbfbl32RhPoslLOgvh7+4JZ4sBgUbORIwdH9A4amdo/tGWr3I7CNvi3V2dS2gyvi+z8ru/ZOduUXrO0lAhLKpv1T6WhZj6FpAQRROZDEQ2PBLQPZEmeStawHJhgcbZr+5z8abMf1ZGMpkE20biLybe4Y4+oOtDmX+CMiN5R3yR/5kXh5zExAR/746f+6beQ0cdtMRGB6d3GtKYW4C6n4JSxcHWiklAAEpTayvsCAgX6SV+oGAlCbWV1gQkC/SSv1AQEoT6yssCMgXaaV+ICClifUVFgTki7RSPxCQ0sT6CgsC8kVaqR8ISGlifYUFAfkirdQPBKQ0sb7CgoB8kVbqBwJSmlhfYUFAvkgr9QMBKU2sr7AgIF+klfqBgJQm1ldYEJAv0kr9QEBKE+srLAjIF2mlfiAgpYn1FRYE5Iu0Uj8QkNLE+goLAvJFWqkfCEhpYn2FBQH5Iq3UDwSkNLG+woKAfJFW6gcCUppYX2FBQL5IK/UDASlNrK+wICBfpJX6gYCUJtZXWBCQL9JK/UBAShPrKywIyBdppX4gIKWJ9RUWBOSLtFI/EJDSxPoKCwLyRVqpHwhIaWJ9hQUB+SKt1A8EpDSxvsKCgHyRVuoHAlKaWF9hQUC+SCv1AwEpTayvsCAgX6SV+oGAlCbWV1gQkC/SSv1AQEoT6yssCMgXaaV+ICClifUVFgTki7RSP6W84jKGxofGpo7mZR92UxMYTt1yAw1zExCRORQYOrSBMaFLgQh0vYQxmUaB4sVQ/0/AEGWSt64FFER8EVkpHgGO+M0sRt21gJbqV35FzNUsBgMbfggwUVNmoB+1emNiKe7s6lpAtLi4ytw8REx/78w1Wt8ZAixLFx9fmp+50OrfkBFtdXZlsomuzr88Pzg6+vGt4X1HjOEJEVO5s2Ggdd4EZG6RWYeXP2jyibdeP79k8xfPQCIiW5WzLBMBxdavLSxcv0b0Y6cnVPQ8gY3MQN0vYT2PBQPMk4BTQMxUtzmuVCY+ZCtHWfEJyAZomy0K2Rmt2MrjMqeAZL28bOsUDGz5lpSHtjqUFZfA0Nj+aRn952wRNCOyaiFu69wDyabrtGynhlsNGmO+unts6oiUy5YHlwoCJn7RY3bYYolXonr471dtdXGZU0BRZJ4NA/qitaMxW6U8/sKlnYCJnrs6O3fDFaZzCavNnz3NzC+6OqJcPwGZfW40ufF0UqROAcWd1piOyb2BvyYZQJ1OAjJ5RGSio5fmXl1OijBRQH+bn3m3vrKyX4y9lGQEdcoIML1jmB+rzp471S6y1LcdK3um5fEMPi43mw7Izcr+doZRX0QC/IYsWyej968/U6v95b00EaQW0DpjZvfY5GCDgy3ryvBjgQmUIlqrrl65Gr+vWeAwMHQQAAEQAAEQAAEQ8EYg9SZ6x0N7d/UH5SPS4RF5FbZLRohNtLc05etI3iyVW358VR4G+hOzOVmdO5v6tk0aAQXDe/Z/g0zwdXGAB8XyzWVvWGc+HTWiY8sXz19qN6B2Agp3j089F39Ep50h1GsjwNeIowNLc+dfT4os8U708PjUtyGeJHya68wgU/jCfSOfHkiK0vlcj4jnQbnr/DPpnCiyJOOoKzYB2bJsu/cew+9efet3rkic4pCN1XHp5Hzcw2UQ5doIBF+WiJwTjVMg8njjo7YNkrxXcqZJjaeo0XhbG6q7Np57wnJo+g7LivOd2xgYur8yNvVwbW7mldvqpMApIBHPR20dog8axy69+cearQ5lhSbw3eGxqYPyxOkjrVGYiGMtWAXkXMLof08dttqiGsRzGxMtBTID2Z/9Cci5kXYLSAsVxJErAecSlqvXu9j4hz+2f+tAo37H/nDrdWpcvnzhP1mlAALKimQbO0N7Jj9jgvBZ2VtWqLypTev8qu+Vj0IMD06/1uTVw62Pq27ko8137C8hP0S9aTkIghM3xdMDw5Nx7A2p75nWocgeSF58d3ZhBuqM14Zabx+ZHpSOD2yoc06dRCyfyMI0ZqAsKLaxUe6vO2/EtemaX7XhTHKfiZH8ooTlXicAAfV6hnp8fBBQjyeo14cHAfV6hnp8fBCQjwTduBZ/SG/Nh6u0PuT1eianq0BAaYl30a5Wq9XlKYYfdmEi067yUXW56HutRuMbia1l7X7HfaB2hDKqlwfVn5KH9F6iiEblEb2OE5XRMORWIct5UeaM6/GMTv1AQJ0S66J9dXbml9I9/urJayN3orGE9WQqizMop4BkjcQhm8XJYyYjlY21t0M2sfRlkrLeMRIfsikbs8dsI8rlkE35Lz3/sDlDWfEIyH8XkPOePB+yKWrFIZvF04pjxAkvCrs5ZFP+58ULDo8ovgsIyD64u0M2G8yP45DNu0AplhBlQ93EIZsWMChKQUAO2YzyOWSTviTuD+CUjhRJKGQTXpBl6+d0feX71eqFf6UJIWH35Ox+85DNNVrb7GyBikIRCJt9TRyyWaiUYbAgAAIgAAIgAAIgAAIgAAIgAAIgAAIg4J3AfwH14hVTNTzklgAAAABJRU5ErkJggg==;fontSize=16;" parent="1" vertex="1">
          <mxGeometry x="-480" y="360" width="80" height="80" as="geometry" />
        </mxCell>
        <mxCell id="lDrv2gHEDihpgpW9zfLM-11" style="edgeStyle=orthogonalEdgeStyle;rounded=0;orthogonalLoop=1;jettySize=auto;html=1;startArrow=classic;startFill=1;endArrow=none;endFill=0;strokeWidth=3;" parent="1" source="h_LR5JkF6NUi5p9TTi_5-1" target="lDrv2gHEDihpgpW9zfLM-4" edge="1">
          <mxGeometry relative="1" as="geometry" />
        </mxCell>
        <mxCell id="h_LR5JkF6NUi5p9TTi_5-1" value="Amazon CloudWatch" style="sketch=0;points=[[0,0,0],[0.25,0,0],[0.5,0,0],[0.75,0,0],[1,0,0],[0,1,0],[0.25,1,0],[0.5,1,0],[0.75,1,0],[1,1,0],[0,0.25,0],[0,0.5,0],[0,0.75,0],[1,0.25,0],[1,0.5,0],[1,0.75,0]];points=[[0,0,0],[0.25,0,0],[0.5,0,0],[0.75,0,0],[1,0,0],[0,1,0],[0.25,1,0],[0.5,1,0],[0.75,1,0],[1,1,0],[0,0.25,0],[0,0.5,0],[0,0.75,0],[1,0.25,0],[1,0.5,0],[1,0.75,0]];outlineConnect=0;fontColor=#232F3E;fillColor=#E7157B;strokeColor=#ffffff;dashed=0;verticalLabelPosition=top;verticalAlign=bottom;align=center;html=1;fontSize=16;fontStyle=0;aspect=fixed;shape=mxgraph.aws4.resourceIcon;resIcon=mxgraph.aws4.cloudwatch_2;labelPosition=center;" parent="1" vertex="1">
          <mxGeometry x="120" y="360" width="80" height="80" as="geometry" />
        </mxCell>
        <mxCell id="lDrv2gHEDihpgpW9zfLM-1" value="" style="sketch=0;points=[[0,0,0],[0.25,0,0],[0.5,0,0],[0.75,0,0],[1,0,0],[0,1,0],[0.25,1,0],[0.5,1,0],[0.75,1,0],[1,1,0],[0,0.25,0],[0,0.5,0],[0,0.75,0],[1,0.25,0],[1,0.5,0],[1,0.75,0]];outlineConnect=0;fontColor=#232F3E;fillColor=#ED7100;strokeColor=#ffffff;dashed=0;verticalLabelPosition=bottom;verticalAlign=top;align=center;html=1;fontSize=12;fontStyle=0;aspect=fixed;shape=mxgraph.aws4.resourceIcon;resIcon=mxgraph.aws4.auto_scaling2;" parent="1" vertex="1">
          <mxGeometry x="-160" y="320" width="40" height="40" as="geometry" />
        </mxCell>
        <mxCell id="lDrv2gHEDihpgpW9zfLM-10" style="edgeStyle=orthogonalEdgeStyle;rounded=0;orthogonalLoop=1;jettySize=auto;html=1;entryX=0;entryY=0.5;entryDx=0;entryDy=0;entryPerimeter=0;strokeWidth=3;" parent="1" source="lDrv2gHEDihpgpW9zfLM-2" target="lDrv2gHEDihpgpW9zfLM-4" edge="1">
          <mxGeometry relative="1" as="geometry" />
        </mxCell>
        <mxCell id="lDrv2gHEDihpgpW9zfLM-2" value="Application &lt;br&gt;Load Balancer" style="sketch=0;points=[[0,0,0],[0.25,0,0],[0.5,0,0],[0.75,0,0],[1,0,0],[0,1,0],[0.25,1,0],[0.5,1,0],[0.75,1,0],[1,1,0],[0,0.25,0],[0,0.5,0],[0,0.75,0],[1,0.25,0],[1,0.5,0],[1,0.75,0]];outlineConnect=0;fontColor=#232F3E;fillColor=#8C4FFF;strokeColor=#ffffff;dashed=0;verticalLabelPosition=top;verticalAlign=bottom;align=center;html=1;fontSize=16;fontStyle=0;aspect=fixed;shape=mxgraph.aws4.resourceIcon;resIcon=mxgraph.aws4.elastic_load_balancing;labelPosition=center;" parent="1" vertex="1">
          <mxGeometry x="-280" y="360" width="80" height="80" as="geometry" />
        </mxCell>
        <mxCell id="lDrv2gHEDihpgpW9zfLM-4" value="AWS Fargate" style="sketch=0;points=[[0,0,0],[0.25,0,0],[0.5,0,0],[0.75,0,0],[1,0,0],[0,1,0],[0.25,1,0],[0.5,1,0],[0.75,1,0],[1,1,0],[0,0.25,0],[0,0.5,0],[0,0.75,0],[1,0.25,0],[1,0.5,0],[1,0.75,0]];outlineConnect=0;fontColor=#232F3E;fillColor=#ED7100;strokeColor=#ffffff;dashed=0;verticalLabelPosition=top;verticalAlign=bottom;align=center;html=1;fontSize=16;fontStyle=0;aspect=fixed;shape=mxgraph.aws4.resourceIcon;resIcon=mxgraph.aws4.fargate;labelPosition=center;" parent="1" vertex="1">
          <mxGeometry x="-80" y="360" width="80" height="80" as="geometry" />
        </mxCell>
        <mxCell id="OQyQTapIJh1KUMJaQgnx-5" style="edgeStyle=orthogonalEdgeStyle;rounded=0;orthogonalLoop=1;jettySize=auto;html=1;endArrow=none;endFill=0;startArrow=classic;startFill=1;strokeWidth=3;" edge="1" parent="1" source="OQyQTapIJh1KUMJaQgnx-1" target="lDrv2gHEDihpgpW9zfLM-4">
          <mxGeometry relative="1" as="geometry" />
        </mxCell>
        <mxCell id="OQyQTapIJh1KUMJaQgnx-6" style="edgeStyle=orthogonalEdgeStyle;rounded=0;orthogonalLoop=1;jettySize=auto;html=1;strokeWidth=3;" edge="1" parent="1" source="OQyQTapIJh1KUMJaQgnx-1" target="OQyQTapIJh1KUMJaQgnx-2">
          <mxGeometry relative="1" as="geometry" />
        </mxCell>
        <mxCell id="OQyQTapIJh1KUMJaQgnx-1" value="Amazon&lt;br&gt;Data Firehose" style="sketch=0;points=[[0,0,0],[0.25,0,0],[0.5,0,0],[0.75,0,0],[1,0,0],[0,1,0],[0.25,1,0],[0.5,1,0],[0.75,1,0],[1,1,0],[0,0.25,0],[0,0.5,0],[0,0.75,0],[1,0.25,0],[1,0.5,0],[1,0.75,0]];outlineConnect=0;fontColor=#232F3E;fillColor=#8C4FFF;strokeColor=#ffffff;dashed=0;verticalLabelPosition=top;verticalAlign=bottom;align=center;html=1;fontSize=16;fontStyle=0;aspect=fixed;shape=mxgraph.aws4.resourceIcon;resIcon=mxgraph.aws4.kinesis_data_firehose;labelPosition=center;" vertex="1" parent="1">
          <mxGeometry x="120" y="520" width="80" height="80" as="geometry" />
        </mxCell>
        <mxCell id="OQyQTapIJh1KUMJaQgnx-7" style="edgeStyle=orthogonalEdgeStyle;rounded=0;orthogonalLoop=1;jettySize=auto;html=1;strokeWidth=3;" edge="1" parent="1" source="OQyQTapIJh1KUMJaQgnx-2" target="OQyQTapIJh1KUMJaQgnx-3">
          <mxGeometry relative="1" as="geometry" />
        </mxCell>
        <mxCell id="OQyQTapIJh1KUMJaQgnx-2" value="Lambda Function" style="sketch=0;points=[[0,0,0],[0.25,0,0],[0.5,0,0],[0.75,0,0],[1,0,0],[0,1,0],[0.25,1,0],[0.5,1,0],[0.75,1,0],[1,1,0],[0,0.25,0],[0,0.5,0],[0,0.75,0],[1,0.25,0],[1,0.5,0],[1,0.75,0]];outlineConnect=0;fontColor=#232F3E;fillColor=#ED7100;strokeColor=#ffffff;dashed=0;verticalLabelPosition=top;verticalAlign=bottom;align=center;html=1;fontSize=16;fontStyle=0;aspect=fixed;shape=mxgraph.aws4.resourceIcon;resIcon=mxgraph.aws4.lambda;labelPosition=center;" vertex="1" parent="1">
          <mxGeometry x="280" y="520" width="80" height="80" as="geometry" />
        </mxCell>
        <mxCell id="OQyQTapIJh1KUMJaQgnx-3" value="S3 Bucket" style="sketch=0;points=[[0,0,0],[0.25,0,0],[0.5,0,0],[0.75,0,0],[1,0,0],[0,1,0],[0.25,1,0],[0.5,1,0],[0.75,1,0],[1,1,0],[0,0.25,0],[0,0.5,0],[0,0.75,0],[1,0.25,0],[1,0.5,0],[1,0.75,0]];outlineConnect=0;fontColor=#232F3E;fillColor=#7AA116;strokeColor=#ffffff;dashed=0;verticalLabelPosition=top;verticalAlign=bottom;align=center;html=1;fontSize=16;fontStyle=0;aspect=fixed;shape=mxgraph.aws4.resourceIcon;resIcon=mxgraph.aws4.s3;labelPosition=center;" vertex="1" parent="1">
          <mxGeometry x="440" y="520" width="80" height="80" as="geometry" />
        </mxCell>
        <mxCell id="OQyQTapIJh1KUMJaQgnx-8" style="edgeStyle=orthogonalEdgeStyle;rounded=0;orthogonalLoop=1;jettySize=auto;html=1;entryX=0.5;entryY=1;entryDx=0;entryDy=0;entryPerimeter=0;strokeWidth=3;" edge="1" parent="1" source="OQyQTapIJh1KUMJaQgnx-4" target="OQyQTapIJh1KUMJaQgnx-3">
          <mxGeometry relative="1" as="geometry" />
        </mxCell>
        <mxCell id="OQyQTapIJh1KUMJaQgnx-4" value="Athena Query" style="sketch=0;points=[[0,0,0],[0.25,0,0],[0.5,0,0],[0.75,0,0],[1,0,0],[0,1,0],[0.25,1,0],[0.5,1,0],[0.75,1,0],[1,1,0],[0,0.25,0],[0,0.5,0],[0,0.75,0],[1,0.25,0],[1,0.5,0],[1,0.75,0]];outlineConnect=0;fontColor=#232F3E;fillColor=#8C4FFF;strokeColor=#ffffff;dashed=0;verticalLabelPosition=bottom;verticalAlign=top;align=center;html=1;fontSize=16;fontStyle=0;aspect=fixed;shape=mxgraph.aws4.resourceIcon;resIcon=mxgraph.aws4.athena;" vertex="1" parent="1">
          <mxGeometry x="440" y="680" width="80" height="80" as="geometry" />
        </mxCell>
      </root>
    </mxGraphModel>
  </diagram>
</mxfile>
